<svg xmlns="http://www.w3.org/2000/svg" viewBox="0 0 300 300">

  <path d="M150 37.5c-61.9 0-112.5 50.6-112.5 112.5 0 49.6 32.4 91.7 77.1 106.6 5.6 1.1 7.7-2.4 7.7-5.4 0-2.7-0.1-11.4-0.1-20.8-31.4 6.8-38-13.3-38-13.3-5.1-13.1-12.5-16.5-12.5-16.5-10.2-7 0.8-6.8 0.8-6.8 11.3 0.8 17.3 11.6 17.3 11.6 10 17.2 26.3 12.2 32.7 9.3 1-7.3 3.9-12.2 7.1-15-25.1-2.9-51.4-12.5-51.4-55.8 0-12.3 4.4-22.4 11.6-30.3-1.2-2.8-5-14.3 1.1-29.8 0 0 9.4-3 30.9 11.5 9-2.5 18.6-3.8 28.2-3.8 9.6 0 19.2 1.3 28.2 3.8 21.5-14.5 30.9-11.5 30.9-11.5 6.1 15.5 2.3 27 1.1 29.8 7.2 7.9 11.6 18 11.6 30.3 0 43.4-26.4 52.9-51.5 55.7 4 3.5 7.7 10.3 7.7 20.7 0 15-0.1 27.1-0.1 30.8 0 3 2 6.5 7.7 5.4 44.7-14.9 77.1-57 77.1-106.6 0-61.9-50.6-112.5-112.5-112.5z" fill="#181717"/>
</svg>